<svg width="51" height="50" viewBox="0 0 51 50" fill="none" xmlns="http://www.w3.org/2000/svg">
<path d="M15.083 18.75H27.583M35.9163 29.1667L33.333 33.9583L27.583 34.7292L31.7497 38.4792L30.7705 43.75L35.9163 41.25L41.0622 43.75L40.083 38.4792L44.2497 34.7292L38.4997 33.9583L35.9163 29.1667ZM15.083 27.0833H27.583H15.083Z" stroke="#22376B" stroke-width="2" stroke-linecap="round" stroke-linejoin="round"/>
<path d="M21.3333 43.75H8.83333C8.2808 43.75 7.75089 43.5305 7.36019 43.1398C6.96949 42.7491 6.75 42.2192 6.75 41.6667V14.5833L15.0833 6.25H33.8333C34.3859 6.25 34.9158 6.46949 35.3065 6.86019C35.6972 7.25089 35.9167 7.7808 35.9167 8.33333V20.8333" stroke="#306CFE" stroke-width="2" stroke-linecap="round" stroke-linejoin="round"/>
</svg>
