<svg width="50" height="50" viewBox="0 0 50 50" fill="none" xmlns="http://www.w3.org/2000/svg">
<path d="M20.832 31.25H26.0404C26.8692 31.25 27.664 30.9208 28.2501 30.3347C28.8361 29.7487 29.1654 28.9538 29.1654 28.125V28.125C29.1654 27.2962 28.8361 26.5013 28.2501 25.9153C27.664 25.3292 26.8692 25 26.0404 25H23.957C23.1282 25 22.3334 24.6708 21.7473 24.0847C21.1613 23.4987 20.832 22.7038 20.832 21.875C20.832 21.0462 21.1613 20.2513 21.7473 19.6653C22.3334 19.0792 23.1282 18.75 23.957 18.75H29.1654" stroke="#344054" stroke-width="2" stroke-linecap="round" stroke-linejoin="round"/>
<path d="M25 33.3332V31.2498M25 18.7498V16.6665V18.7498Z" stroke="#344054" stroke-width="2" stroke-linecap="round" stroke-linejoin="round"/>
<path d="M25 43.75C35.3553 43.75 43.75 35.3553 43.75 25C43.75 14.6447 35.3553 6.25 25 6.25C14.6447 6.25 6.25 14.6447 6.25 25C6.25 35.3553 14.6447 43.75 25 43.75Z" stroke="#306CFE" stroke-width="2" stroke-linecap="round" stroke-linejoin="round"/>
</svg>
