<svg width="1843" height="402" viewBox="0 0 1843 402" fill="none" xmlns="http://www.w3.org/2000/svg"><g opacity=".05" clip-path="url(#a)" fill="#306CFE"><path d="M92.723-44.45C-24.65 163.604-38.016 165.896-38.016 199.855c.02 9.816 2 19.532 5.83 28.591a74.601 74.601 0 0 0 16.492 24.206A75.767 75.767 0 0 0 8.94 268.778a76.587 76.587 0 0 0 29.018 5.587c51.57 0 56.799-42.986 125.074-42.986a119.028 119.028 0 0 1 32.684 4.155 94.157 94.157 0 0 1-6.972-35.249v-1.576a174.924 174.924 0 0 0-25.858-1.863c-78.152 0-88.757 42.987-124.928 42.987a41.178 41.178 0 0 1-15.576-3 40.71 40.71 0 0 1-13.228-8.65A40.096 40.096 0 0 1 .29 215.198a39.652 39.652 0 0 1-3.151-15.343c0-18.484 1.307-9.027 125.364-227.11a46.31 46.31 0 0 1 17.086-17.015 47.126 47.126 0 0 1 23.443-6.235 47.125 47.125 0 0 1 23.442 6.235 46.312 46.312 0 0 1 17.087 17.014c20.046 35.25 36.752 64.337 50.988 88.695 6.101-10.316 12.783-21.923 20.192-34.675C262.829 6.13 249.319-17.37 234.212-44.88c-7.285-12.131-17.656-22.176-30.087-29.139a82.955 82.955 0 0 0-40.782-10.559 82.944 82.944 0 0 0-40.716 10.807c-12.387 7.038-22.695 17.145-29.904 29.32Z" opacity=".6"/><path d="M484.934-44.453c-7.2-12.32-17.562-22.553-30.045-29.667a82.948 82.948 0 0 0-41.062-10.86 82.945 82.945 0 0 0-41.062 10.86c-12.483 7.114-22.846 17.347-30.046 29.667C226.507 163.6 211.98 165.893 211.98 199.136a73.779 73.779 0 0 0 5.831 28.591 74.59 74.59 0 0 0 16.491 24.205 75.755 75.755 0 0 0 24.634 16.127 76.602 76.602 0 0 0 29.018 5.587c51.569 0 56.799-42.987 125.074-42.987 68.274 0 73.649 42.987 125.218 42.987 20.086.038 39.367-7.786 53.611-21.756 14.243-13.969 22.286-32.942 22.363-52.754.146-33.243-13.074-35.535-129.286-243.59Zm54.039 284.283c-34.283 0-48.374-42.987-125.364-42.987-76.991 0-88.757 42.987-124.928 42.987a41.178 41.178 0 0 1-15.577-2.999 40.725 40.725 0 0 1-13.227-8.651 40.066 40.066 0 0 1-8.864-12.985 39.642 39.642 0 0 1-3.152-15.343c0-18.484 1.307-9.027 125.364-227.11a46.311 46.311 0 0 1 17.087-17.015 47.124 47.124 0 0 1 23.442-6.235 47.124 47.124 0 0 1 23.442 6.235 46.304 46.304 0 0 1 17.087 17.014C578.34 190.825 579.792 181.368 579.792 199.852a39.778 39.778 0 0 1-3.245 15.454 40.251 40.251 0 0 1-9.018 13.036 40.881 40.881 0 0 1-13.405 8.616 41.342 41.342 0 0 1-15.732 2.872h.581Z"/></g><g opacity=".05" clip-path="url(#b)" fill="#306CFE"><path d="M1320.72 159.55c-117.37 208.054-130.74 210.346-130.74 244.305.02 9.816 2 19.532 5.83 28.591a74.573 74.573 0 0 0 16.5 24.206 75.64 75.64 0 0 0 24.63 16.126 76.612 76.612 0 0 0 29.02 5.587c51.57 0 56.8-42.986 125.07-42.986a119.095 119.095 0 0 1 32.69 4.155 94.165 94.165 0 0 1-6.98-35.249v-1.576c-8.56-1.26-17.2-1.882-25.85-1.863-78.16 0-88.76 42.987-124.93 42.987a41.194 41.194 0 0 1-15.58-3 40.74 40.74 0 0 1-13.23-8.65 40.065 40.065 0 0 1-8.86-12.985 39.699 39.699 0 0 1-3.15-15.343c0-18.484 1.31-9.027 125.36-227.111a46.368 46.368 0 0 1 17.09-17.014 47.13 47.13 0 0 1 23.44-6.235c8.24 0 16.32 2.151 23.44 6.235 7.12 4.084 13.02 9.954 17.09 17.014 20.05 35.249 36.75 64.336 50.99 88.695 6.1-10.316 12.78-21.923 20.19-34.675-11.91-20.634-25.42-44.133-40.53-71.644-7.28-12.132-17.65-22.176-30.08-29.139a82.982 82.982 0 0 0-40.79-10.559 82.928 82.928 0 0 0-40.71 10.807c-12.39 7.038-22.7 17.145-29.91 29.321Z" opacity=".6"/><path d="M1712.93 159.547c-7.2-12.32-17.56-22.553-30.04-29.667a82.946 82.946 0 0 0-41.06-10.86 82.983 82.983 0 0 0-41.07 10.86c-12.48 7.114-22.84 17.347-30.04 29.667-116.21 208.054-130.74 210.346-130.74 243.589.02 9.816 2 19.531 5.83 28.591a74.54 74.54 0 0 0 16.49 24.205 75.79 75.79 0 0 0 24.64 16.127 76.543 76.543 0 0 0 29.01 5.587c51.57 0 56.8-42.987 125.08-42.987 68.27 0 73.65 42.987 125.22 42.987 20.08.038 39.36-7.786 53.61-21.756 14.24-13.969 22.28-32.942 22.36-52.754.15-33.243-13.07-35.535-129.29-243.589Zm54.04 284.283c-34.28 0-48.37-42.987-125.36-42.987-76.99 0-88.76 42.987-124.93 42.987a41.23 41.23 0 0 1-15.58-2.999 40.716 40.716 0 0 1-13.22-8.651 40.083 40.083 0 0 1-8.87-12.985 39.695 39.695 0 0 1-3.15-15.343c0-18.484 1.31-9.027 125.37-227.111a46.266 46.266 0 0 1 17.08-17.014 47.141 47.141 0 0 1 23.44-6.235 47.15 47.15 0 0 1 23.45 6.235 46.266 46.266 0 0 1 17.08 17.014c124.06 218.084 125.51 208.627 125.51 227.111a39.918 39.918 0 0 1-3.24 15.454 40.303 40.303 0 0 1-9.02 13.036 40.934 40.934 0 0 1-13.41 8.616 41.31 41.31 0 0 1-15.73 2.872h.58Z"/></g><defs><clipPath id="a"><path fill="#fff" d="M-38-85h652.387v359.366H-38z"/></clipPath><clipPath id="b"><path fill="#fff" d="M1190 119h652.387v359.366H1190z"/></clipPath></defs></svg>
